<svg width="100%" height="100%" viewBox="0 0 40 44" fill="white" xmlns="http://www.w3.org/2000/svg">
  <path d="M20.3242 13.1386C21.4075 13.1386 22.7654 12.4062 23.574 11.4297C24.3064 10.5448 24.8404 9.30893 24.8404 8.07308C24.8404 7.90525 24.8252 7.73741 24.7946 7.6001C23.5893 7.64587 22.1398 8.40874 21.2702 9.43099C20.5836 10.2091 19.958 11.4297 19.958 12.6808C19.958 12.8639 19.9885 13.047 20.0038 13.108C20.0801 13.1233 20.2021 13.1386 20.3242 13.1386ZM16.5098 31.6001C17.9898 31.6001 18.6459 30.6084 20.492 30.6084C22.3687 30.6084 22.7807 31.5696 24.4285 31.5696C26.0458 31.5696 27.129 30.0744 28.1513 28.6096C29.2956 26.9313 29.7686 25.2835 29.7991 25.2072C29.6923 25.1767 26.595 23.9103 26.595 20.3553C26.595 17.2733 29.0362 15.8849 29.1735 15.7781C27.5562 13.459 25.0998 13.3979 24.4285 13.3979C22.6128 13.3979 21.1328 14.4965 20.2021 14.4965C19.1952 14.4965 17.8678 13.459 16.2962 13.459C13.3058 13.459 10.2695 15.9307 10.2695 20.5995C10.2695 23.4984 11.3986 26.5651 12.787 28.5486C13.9771 30.2269 15.0146 31.6001 16.5098 31.6001Z" fill="white"></path>
</svg>