<svg width="100%" height="100%" viewBox="0 0 40 44" fill="none" xmlns="http://www.w3.org/2000/svg">
  <path fill-rule="evenodd" clip-rule="evenodd" d="M29.6 22.2273C29.6 21.5182 29.5364 20.8364 29.4182 20.1819H20V24.0501H25.3818C25.15 25.3001 24.4455 26.3592 23.3864 27.0682V29.5773H26.6182C28.5091 27.8364 29.6 25.2728 29.6 22.2273Z" fill="#4285F4"></path>
  <path fill-rule="evenodd" clip-rule="evenodd" d="M19.9998 32C22.6998 32 24.9635 31.1046 26.618 29.5773L23.3862 27.0682C22.4907 27.6682 21.3453 28.0228 19.9998 28.0228C17.3953 28.0228 15.1907 26.2637 14.4044 23.9H11.0635V26.4909C12.7089 29.7591 16.0907 32 19.9998 32Z" fill="#34A853"></path>
  <path fill-rule="evenodd" clip-rule="evenodd" d="M14.4045 23.9001C14.2045 23.3001 14.0909 22.6592 14.0909 22.0001C14.0909 21.341 14.2045 20.7001 14.4045 20.1001V17.5092H11.0636C10.3864 18.8592 10 20.3864 10 22.0001C10 23.6137 10.3864 25.141 11.0636 26.491L14.4045 23.9001Z" fill="#FBBC05"></path>
  <path fill-rule="evenodd" clip-rule="evenodd" d="M19.9998 15.9773C21.468 15.9773 22.7862 16.4818 23.8226 17.4727L26.6907 14.6045C24.9589 12.9909 22.6953 12 19.9998 12C16.0907 12 12.7089 14.2409 11.0635 17.5091L14.4044 20.1C15.1907 17.7364 17.3953 15.9773 19.9998 15.9773Z" fill="#EA4335"></path>
</svg>